<svg xmlns="http://www.w3.org/2000/svg" width="1427" height="698" fill="none" viewBox="0 0 1427 698"><path stroke="#E85E59" d="M29.4275 52.8438L29.4275 572.172"/><rect width="13.59" height="396.24" x="22.632" y="164.498" fill="#E85E59" stroke="#E85E59"/><path stroke="#E85E59" d="M49.4893 473.772L49.4893 697.903"/><rect width="13.59" height="91.932" x="42.694" y="561.739" fill="#E85E59" stroke="#E85E59"/><path stroke="#E85E59" d="M118.793 391.773L119.913 646.882"/><rect width="13.59" height="111.977" x="111.998" y="410.496" fill="#E85E59" stroke="#E85E59"/><path stroke="#E85E59" d="M206.335 96.5767L206.335 346.218"/><rect width="13.59" height="73.71" x="199.54" y="131.699" fill="#E85E59" stroke="#E85E59"/><path stroke="#E85E59" d="M250.106 45.5552L250.106 249.642"/><rect width="13.59" height="108.332" x="243.311" y="102.543" fill="#E85E59" stroke="#E85E59"/><path stroke="#E85E59" d="M271.991 169.465L273.111 331.641"/><rect width="13.59" height="113.799" x="265.196" y="204.587" fill="#E85E59" stroke="#E85E59"/><path stroke="#E85E59" d="M293.877 318.885L293.877 484.706"/><rect width="13.59" height="90.11" x="287.082" y="323.03" fill="#E85E59" stroke="#E85E59"/><path stroke="#E85E59" d="M338.768 198.62L337.648 251.464"/><rect width="13.59" height="4.467" x="330.852" y="230.098" fill="#E85E59" stroke="#E85E59"/><path stroke="#E85E59" d="M359.533 213.198L360.653 278.797"/><rect width="13.59" height="42.733" x="352.738" y="222.809" fill="#E85E59" stroke="#E85E59"/><path stroke="#E85E59" d="M403.304 388.129L404.424 519.328"/><rect width="13.59" height="22.689" x="396.509" y="390.451" fill="#E85E59" stroke="#E85E59"/><path stroke="#E85E59" d="M448.899 335.285L450.019 397.24"/><rect width="13.59" height="13.578" x="442.104" y="361.296" fill="#E85E59" stroke="#E85E59"/><path stroke="#E85E59" d="M470.784 364.44L471.904 419.107"/><rect width="13.59" height="19.044" x="463.989" y="366.763" fill="#E85E59" stroke="#E85E59"/><path stroke="#E85E59" d="M580.211 142.132L580.211 245.997"/><rect width="13.59" height="84.644" x="573.416" y="149.921" fill="#E85E59" stroke="#E85E59"/><path stroke="#E85E59" d="M603.217 216.842L602.097 264.219"/><rect width="13.59" height="15.4" x="595.302" y="226.453" fill="#E85E59" stroke="#E85E59"/><path stroke="#E85E59" d="M691.462 0L692.582 85.6435"/><rect width="13.59" height="50.022" x="684.667" y="31.477" fill="#E85E59" stroke="#E85E59"/><path stroke="#E85E59" d="M800.89 23.6885L802.01 287.908"/><rect width="13.59" height="254.108" x="794.094" y="29.655" fill="#E85E59" stroke="#E85E59"/><path stroke="#E85E59" d="M713.348 49.1997L714.468 134.843"/><rect width="13.59" height="13.578" x="706.553" y="67.921" fill="#E85E59" stroke="#E85E59"/><path stroke="#E85E59" d="M868.37 89.2876L869.49 160.353"/><rect width="13.59" height="13.578" x="861.575" y="97.077" fill="#E85E59" stroke="#E85E59"/><path stroke="#E85E59" d="M890.255 81.999L891.375 233.242"/><rect width="13.59" height="121.088" x="883.46" y="108.01" fill="#E85E59" stroke="#E85E59"/><path stroke="#E85E59" d="M910.317 205.909L911.437 320.707"/><rect width="13.59" height="86.466" x="903.522" y="230.098" fill="#E85E59" stroke="#E85E59"/><path stroke="#E85E59" d="M932.203 309.774L933.323 448.262"/><rect width="13.59" height="104.688" x="925.407" y="313.919" fill="#E85E59" stroke="#E85E59"/><path stroke="#E85E59" d="M977.797 337.107L978.917 462.839"/><rect width="13.59" height="59.133" x="971.002" y="399.562" fill="#E85E59" stroke="#E85E59"/><path stroke="#E85E59" d="M999.683 446.439L1000.8 572.171"/><rect width="13.59" height="90.11" x="992.887" y="450.584" fill="#E85E59" stroke="#E85E59"/><path stroke="#E85E59" d="M1044.57 499.283L1043.45 614.082"/><rect width="13.59" height="28.155" x="1036.66" y="508.895" fill="#E85E59" stroke="#E85E59"/><path stroke="#E85E59" d="M1065.34 481.062L1066.46 575.816"/><rect width="13.59" height="13.578" x="1058.54" y="532.583" fill="#E85E59" stroke="#E85E59"/><path stroke="#E85E59" d="M1109.11 450.084L1110.23 590.394"/><rect width="13.59" height="95.577" x="1102.31" y="479.739" fill="#E85E59" stroke="#E85E59"/><path stroke="#E85E59" d="M1154.7 471.95L1155.82 550.305"/><rect width="13.59" height="42.733" x="1147.91" y="488.85" fill="#E85E59" stroke="#E85E59"/><path stroke="#E85E59" d="M1174.77 519.328L1174.77 625.015"/><rect width="13.59" height="60.955" x="1167.97" y="523.472" fill="#E85E59" stroke="#E85E59"/><path stroke="#E85E59" d="M1196.65 557.594L1197.77 637.771"/><rect width="13.59" height="13.578" x="1189.86" y="585.427" fill="#E85E59" stroke="#E85E59"/><path stroke="#E85E59" d="M1242.25 481.062L1243.37 572.172"/><rect width="13.591" height="28.155" x="1235.45" y="508.895" fill="#E85E59" stroke="#E85E59"/><path stroke="#E85E59" d="M1329.79 222.309L1330.91 397.24"/><rect width="13.59" height="22.689" x="1322.99" y="246.497" fill="#E85E59" stroke="#E85E59"/><path stroke="#E85E59" d="M1373.56 185.865L1374.68 348.041"/><rect width="13.59" height="66.421" x="1366.76" y="270.186" fill="#E85E59" stroke="#E85E59"/><path stroke="#E85E59" d="M383.242 256.931L384.362 399.062"/><rect width="13.59" height="137.487" x="376.447" y="259.253" fill="#E85E59" stroke="#E85E59"/><path stroke="#54B489" d="M73.1982 424.573C73.1982 512.102 73.1983 561.176 73.1983 648.704"/><rect width="13.59" height="90.11" x="66.403" y="556.272" fill="#54B489" stroke="#54B489"/><path stroke="#54B489" d="M95.0837 384.485C95.0837 473.437 95.0838 523.309 95.0838 612.26"/><rect width="13.59" height="144.776" x="88.289" y="410.496" fill="#54B489" stroke="#54B489"/><path stroke="#54B489" d="M138.855 362.619C138.855 445.166 138.855 491.447 138.855 573.994"/><rect width="13.59" height="126.554" x="132.06" y="410.496" fill="#54B489" stroke="#54B489"/><path stroke="#54B489" d="M160.74 271.456C160.74 354.003 160.74 400.284 160.74 482.832"/><rect width="13.59" height="137.487" x="153.945" y="275.6" fill="#54B489" stroke="#54B489"/><path stroke="#54B489" d="M184.449 69.2441C184.887 183.102 185.132 246.938 185.569 360.796"/><rect width="13.59" height="153.887" x="177.654" y="128.054" fill="#54B489" stroke="#54B489"/><path stroke="#54B489" d="M228.22 41.9111C228.22 124.458 228.22 170.739 228.22 253.287"/><rect width="13.59" height="101.043" x="221.425" y="97.077" fill="#54B489" stroke="#54B489"/><path stroke="#54B489" d="M315.762 225.901C315.762 300.62 315.762 342.513 315.762 417.232"/><rect width="13.59" height="172.109" x="308.967" y="240.978" fill="#54B489" stroke="#54B489"/><path stroke="#54B489" d="M425.189 306.13C425.627 348.827 425.872 372.766 426.309 415.462"/><rect width="13.59" height="44.555" x="418.394" y="368.585" fill="#54B489" stroke="#54B489"/><path stroke="#54B489" d="M492.67 344.396C493.107 384.959 493.352 407.7 493.79 448.262"/><rect width="13.59" height="42.733" x="485.874" y="346.719" fill="#54B489" stroke="#54B489"/><path stroke="#54B489" d="M514.555 233.189C514.992 286.561 515.238 316.484 515.675 369.855"/><rect width="13.59" height="119.265" x="507.76" y="240.978" fill="#54B489" stroke="#54B489"/><path stroke="#54B489" d="M537.56 180.346C537.123 210.945 536.878 228.101 536.44 258.7"/><rect width="13.59" height="51.844" x="529.645" y="182.668" fill="#54B489" stroke="#54B489"/><path stroke="#54B489" d="M558.326 120.266C558.763 159.404 559.009 181.348 559.446 220.487"/><rect width="13.59" height="29.977" x="551.531" y="149.868" fill="#54B489" stroke="#54B489"/><path stroke="#54B489" d="M625.102 142.132C624.665 178.425 624.42 198.772 623.982 235.065"/><rect width="13.59" height="59.133" x="617.187" y="169.913" fill="#54B489" stroke="#54B489"/><path stroke="#54B489" d="M647.691 78.355C648.129 120.34 648.374 143.88 648.811 185.865"/><rect width="13.59" height="60.955" x="640.896" y="115.299" fill="#54B489" stroke="#54B489"/><path stroke="#54B489" d="M733.409 34.6221C733.847 72.3376 734.092 93.4832 734.529 131.199"/><rect width="13.59" height="2.644" x="726.614" y="75.21" fill="#54B489" stroke="#54B489"/><path stroke="#54B489" d="M669.577 23.689C670.014 74.9252 670.26 103.651 670.697 154.888"/><rect width="13.59" height="88.288" x="662.782" y="26.011" fill="#54B489" stroke="#54B489"/><path stroke="#54B489" d="M756.415 20.0444C755.978 49.9322 755.732 66.6891 755.295 96.5769"/><rect width="13.59" height="24.511" x="748.5" y="53.344" fill="#54B489" stroke="#54B489"/><path stroke="#54B489" d="M844.661 60.1333C845.098 87.8862 845.343 103.446 845.781 131.199"/><rect width="13.59" height="22.689" x="837.865" y="84.321" fill="#54B489" stroke="#54B489"/><path stroke="#54B489" d="M954.088 368.085C954.525 400.108 954.771 418.062 955.208 450.085"/><rect width="13.59" height="19.044" x="947.293" y="403.207" fill="#54B489" stroke="#54B489"/><path stroke="#54B489" d="M1021.57 457.373C1022.01 495.089 1022.25 516.234 1022.69 553.95"/><rect width="13.59" height="33.622" x="1014.77" y="512.539" fill="#54B489" stroke="#54B489"/><path stroke="#54B489" d="M1087.22 439.151C1087.66 485.406 1087.91 511.339 1088.34 557.594"/><rect width="13.59" height="70.066" x="1080.43" y="485.206" fill="#54B489" stroke="#54B489"/><path stroke="#54B489" d="M1132.82 475.595C1133.26 512.599 1133.5 533.346 1133.94 570.35"/><rect width="13.59" height="66.421" x="1126.02" y="497.961" fill="#54B489" stroke="#54B489"/><path stroke="#54B489" d="M1219.66 470.128C1219.22 522.788 1218.97 552.312 1218.54 604.971"/><rect width="13.59" height="75.532" x="1211.74" y="508.895" fill="#54B489" stroke="#54B489"/><path stroke="#54B489" d="M1265.25 420.929C1264.81 470.742 1264.57 498.67 1264.13 548.483"/><rect width="13.59" height="57.31" x="1257.34" y="465.162" fill="#54B489" stroke="#54B489"/><path stroke="#54B489" d="M1306.08 233.189C1306.52 283.714 1306.76 312.041 1307.2 362.566"/><rect width="13.59" height="119.265" x="1299.28" y="240.978" fill="#54B489" stroke="#54B489"/><path stroke="#54B489" d="M1395.44 258.7C1395.88 300.685 1396.13 324.225 1396.56 366.21"/><rect width="13.59" height="55.488" x="1388.65" y="270.134" fill="#54B489" stroke="#54B489"/><path stroke="#54B489" d="M1420.27 222.256C1419.84 255.702 1419.59 274.454 1419.15 307.9"/><rect width="13.59" height="20.866" x="1412.36" y="257.378" fill="#54B489" stroke="#54B489"/><path stroke="#54B489" d="M1351.67 120.266C1352.11 199.255 1352.36 243.541 1352.79 322.53"/><rect width="13.59" height="2.644" x="1344.88" y="270.134" fill="#54B489" stroke="#54B489"/><path stroke="#54B489" d="M1284.19 353.508C1284.63 401.897 1284.88 429.028 1285.31 477.417"/><rect width="13.59" height="119.265" x="1277.4" y="355.83" fill="#54B489" stroke="#54B489"/><path stroke="#54B489" d="M822.775 103.866C823.212 174.316 823.458 213.814 823.895 284.264"/><rect width="13.59" height="157.532" x="815.98" y="120.766" fill="#54B489" stroke="#54B489"/><path stroke="#54B489" d="M777.18 21.8667C777.18 36.099 777.18 44.0784 777.18 58.3107"/><rect width="13.59" height="11.755" x="770.385" y="26.011" fill="#54B489" stroke="#54B489"/><path stroke="#54B489" d="M7.54199 92.9326C7.542 171.922 7.542 216.208 7.542 295.197"/><rect width="13.59" height="93.754" x=".747" y="184.49" fill="#54B489" stroke="#54B489"/></svg>