<svg xmlns="http://www.w3.org/2000/svg" width="24" height="24" fill="none" viewBox="0 0 24 24"><mask id="mask0" width="22" height="13" x="1" y="6" maskUnits="userSpaceOnUse"><path fill="#F5F5F5" d="M22.6206 18.5002H1.37933C1.16986 18.5002 1 18.3529 1 18.1713V6.32897C1 6.14731 1.16986 6 1.37933 6H22.6207C22.8301 6 23 6.14731 23 6.32897V18.1713C23 18.353 22.8301 18.5002 22.6206 18.5002Z"/></mask><g mask="url(#mask0)"><path fill="#F5F5F5" d="M23 10H1V6.3158C1 6.14141 1.16986 6 1.37933 6H22.6207C22.8301 6 23 6.14141 23 6.3158L23 10Z"/><path fill="#FF4B55" d="M22.6207 19H1.37933C1.16986 19 1 18.8232 1 18.6052V14H23V18.6052C23 18.8233 22.8301 19 22.6207 19Z"/><path fill="#41479B" d="M23 10H1V14H23V10Z"/></g></svg>