<svg width="90" height="32" viewBox="0 0 90 32" fill="none" xmlns="http://www.w3.org/2000/svg">
<path d="M9.45342 24.3783L12.8244 14.9133L15.9801 24.3783H20.0256L25.7138 8.19787H21.1443L18.0706 17.975L15.177 8.19787H10.5722L7.4962 17.975L4.60253 8.19787H0L5.40911 24.3772H9.45342V24.3783ZM28.9629 5.26875C29.6316 5.26875 30.2206 5.00018 30.731 4.4619C31.2403 3.92476 31.4943 3.31562 31.4943 2.63563C31.4943 1.9442 31.2403 1.33278 30.731 0.800209C30.2206 0.266498 29.6316 0.000214165 28.9629 0.000214165C28.6159 -0.00427937 28.2715 0.0619809 27.9507 0.194978C27.63 0.327974 27.3395 0.524937 27.0968 0.773923C26.846 1.01335 26.6471 1.30221 26.5128 1.62239C26.3785 1.94257 26.3117 2.28715 26.3165 2.63448C26.3165 3.31448 26.5785 3.92362 27.1048 4.46076C27.6311 4.9979 28.2509 5.26761 28.9629 5.26761V5.26875ZM30.821 24.3795V8.19787H26.8416V24.3772H30.821V24.3795ZM37.7852 32V22.5521C38.4523 23.3106 39.274 23.9167 40.1947 24.3292C41.1281 24.7476 42.14 24.9608 43.1624 24.9543C45.2335 24.9223 46.9982 24.1623 48.4565 22.6755C49.9147 21.1875 50.7087 19.1932 50.8397 16.6915H50.8739V16.2801C50.8739 15.1053 50.703 14.0081 50.3635 12.9887C49.9796 11.8458 49.4408 10.8916 48.7435 10.1236C48.0509 9.35774 47.2122 8.73907 46.2771 8.30416C45.3324 7.86081 44.3033 7.62805 43.2604 7.62188C42.2106 7.61436 41.1712 7.83015 40.2106 8.25502C39.2716 8.67051 38.4414 9.29877 37.7852 10.0904V8.19787H34.2182V32H37.7852ZM42.488 21.9589C41.2713 21.9589 40.1992 21.5018 39.273 20.5841C38.3468 19.6687 37.8513 18.4584 37.7852 16.9544V16.0824C37.8194 14.4367 38.3001 13.1144 39.232 12.1156C40.197 11.1167 41.3533 10.6184 42.701 10.6184C44.0932 10.6184 45.2666 11.1601 46.2201 12.247C47.1292 13.3007 47.5849 14.6504 47.5849 16.2961V16.4607C47.4858 18.2275 46.9435 19.5887 45.9558 20.5429C44.9818 21.4869 43.8254 21.9589 42.488 21.9589ZM55.6177 24.3783V15.375C55.6724 13.959 56.1247 12.8127 56.9734 11.935C57.8233 11.0561 58.9113 10.6173 60.2373 10.6173C60.3148 10.6173 60.4492 10.6287 60.6406 10.6504C60.832 10.6733 60.9778 10.6893 61.0758 10.6996V8.19673C60.928 8.18611 60.7798 8.18077 60.6315 8.18073C58.3303 8.18073 56.6476 8.9053 55.5847 10.3544V8.19787H52.9713L53.0032 24.3783H55.6177ZM69.4219 24.856C71.0111 24.856 72.4409 24.4503 73.7134 23.6378C74.9848 22.8263 75.9008 21.7452 76.459 20.3955L75.0782 19.8355C74.6373 20.899 73.8751 21.7971 72.8989 22.4035C71.9077 23.0286 70.748 23.3406 69.4219 23.3406C67.7996 23.3406 66.3744 22.7383 65.1475 21.5315C63.9194 20.3235 63.2016 18.8481 62.9943 17.103H77.2804L77.3146 16.3624C77.3146 14.9464 77.0787 13.6733 76.6071 12.543C76.0816 11.0914 75.1077 9.84615 73.8273 8.98873C72.524 8.09845 71.0556 7.65502 69.4219 7.65502H69.2579C67.9204 7.64359 66.6547 8.01616 65.4596 8.77387C64.2315 9.56358 63.2461 10.6287 62.4999 11.967C61.8095 13.1983 61.4473 14.5874 61.4484 16.0001V16.4938C61.44 17.5386 61.6415 18.5745 62.0408 19.5395C62.4782 20.6138 63.0649 21.5452 63.7986 22.3292C64.5314 23.1127 65.4079 23.7472 66.3801 24.1978C67.2847 24.6281 68.2727 24.8528 69.2738 24.856H69.4219ZM75.8996 15.655H62.9932C63.1253 13.8436 63.81 12.3098 65.0484 11.0539C66.2867 9.79672 67.7449 9.16815 69.423 9.16815C70.781 9.16815 71.992 9.51787 73.0561 10.2139C74.1003 10.8874 74.8967 11.8846 75.3243 13.0538C75.6205 13.767 75.8119 14.6344 75.8996 15.655ZM78.3102 24.3783L83.2261 17.4321L88.1419 24.3783H90L84.1637 16.247L89.967 8.19787H88.143L83.2272 15.1441L78.3114 8.19787H76.5L82.2554 16.247L76.451 24.3783H78.308H78.3102Z" fill="#FC452C"/>
</svg>
